<?xml version="1.0" encoding="UTF-8"?>
<svg width="540" height="540" xmlns="http://www.w3.org/2000/svg">
<rect width="540" height="540" fill="white"/>
<rect x="48" y="48" width="12" height="12" fill="black"/>
<rect x="60" y="48" width="12" height="12" fill="black"/>
<rect x="72" y="48" width="12" height="12" fill="black"/>
<rect x="84" y="48" width="12" height="12" fill="black"/>
<rect x="96" y="48" width="12" height="12" fill="black"/>
<rect x="108" y="48" width="12" height="12" fill="black"/>
<rect x="120" y="48" width="12" height="12" fill="black"/>
<rect x="144" y="48" width="12" height="12" fill="black"/>
<rect x="156" y="48" width="12" height="12" fill="black"/>
<rect x="168" y="48" width="12" height="12" fill="black"/>
<rect x="180" y="48" width="12" height="12" fill="black"/>
<rect x="192" y="48" width="12" height="12" fill="black"/>
<rect x="204" y="48" width="12" height="12" fill="black"/>
<rect x="216" y="48" width="12" height="12" fill="black"/>
<rect x="252" y="48" width="12" height="12" fill="black"/>
<rect x="264" y="48" width="12" height="12" fill="black"/>
<rect x="276" y="48" width="12" height="12" fill="black"/>
<rect x="288" y="48" width="12" height="12" fill="black"/>
<rect x="312" y="48" width="12" height="12" fill="black"/>
<rect x="336" y="48" width="12" height="12" fill="black"/>
<rect x="360" y="48" width="12" height="12" fill="black"/>
<rect x="384" y="48" width="12" height="12" fill="black"/>
<rect x="408" y="48" width="12" height="12" fill="black"/>
<rect x="420" y="48" width="12" height="12" fill="black"/>
<rect x="432" y="48" width="12" height="12" fill="black"/>
<rect x="444" y="48" width="12" height="12" fill="black"/>
<rect x="456" y="48" width="12" height="12" fill="black"/>
<rect x="468" y="48" width="12" height="12" fill="black"/>
<rect x="480" y="48" width="12" height="12" fill="black"/>
<rect x="48" y="60" width="12" height="12" fill="black"/>
<rect x="120" y="60" width="12" height="12" fill="black"/>
<rect x="240" y="60" width="12" height="12" fill="black"/>
<rect x="252" y="60" width="12" height="12" fill="black"/>
<rect x="264" y="60" width="12" height="12" fill="black"/>
<rect x="288" y="60" width="12" height="12" fill="black"/>
<rect x="300" y="60" width="12" height="12" fill="black"/>
<rect x="324" y="60" width="12" height="12" fill="black"/>
<rect x="336" y="60" width="12" height="12" fill="black"/>
<rect x="408" y="60" width="12" height="12" fill="black"/>
<rect x="480" y="60" width="12" height="12" fill="black"/>
<rect x="48" y="72" width="12" height="12" fill="black"/>
<rect x="72" y="72" width="12" height="12" fill="black"/>
<rect x="84" y="72" width="12" height="12" fill="black"/>
<rect x="96" y="72" width="12" height="12" fill="black"/>
<rect x="120" y="72" width="12" height="12" fill="black"/>
<rect x="144" y="72" width="12" height="12" fill="black"/>
<rect x="156" y="72" width="12" height="12" fill="black"/>
<rect x="168" y="72" width="12" height="12" fill="black"/>
<rect x="180" y="72" width="12" height="12" fill="black"/>
<rect x="192" y="72" width="12" height="12" fill="black"/>
<rect x="204" y="72" width="12" height="12" fill="black"/>
<rect x="252" y="72" width="12" height="12" fill="black"/>
<rect x="276" y="72" width="12" height="12" fill="black"/>
<rect x="312" y="72" width="12" height="12" fill="black"/>
<rect x="324" y="72" width="12" height="12" fill="black"/>
<rect x="336" y="72" width="12" height="12" fill="black"/>
<rect x="348" y="72" width="12" height="12" fill="black"/>
<rect x="384" y="72" width="12" height="12" fill="black"/>
<rect x="408" y="72" width="12" height="12" fill="black"/>
<rect x="432" y="72" width="12" height="12" fill="black"/>
<rect x="444" y="72" width="12" height="12" fill="black"/>
<rect x="456" y="72" width="12" height="12" fill="black"/>
<rect x="480" y="72" width="12" height="12" fill="black"/>
<rect x="48" y="84" width="12" height="12" fill="black"/>
<rect x="72" y="84" width="12" height="12" fill="black"/>
<rect x="84" y="84" width="12" height="12" fill="black"/>
<rect x="96" y="84" width="12" height="12" fill="black"/>
<rect x="120" y="84" width="12" height="12" fill="black"/>
<rect x="144" y="84" width="12" height="12" fill="black"/>
<rect x="204" y="84" width="12" height="12" fill="black"/>
<rect x="216" y="84" width="12" height="12" fill="black"/>
<rect x="228" y="84" width="12" height="12" fill="black"/>
<rect x="252" y="84" width="12" height="12" fill="black"/>
<rect x="264" y="84" width="12" height="12" fill="black"/>
<rect x="300" y="84" width="12" height="12" fill="black"/>
<rect x="348" y="84" width="12" height="12" fill="black"/>
<rect x="408" y="84" width="12" height="12" fill="black"/>
<rect x="432" y="84" width="12" height="12" fill="black"/>
<rect x="444" y="84" width="12" height="12" fill="black"/>
<rect x="456" y="84" width="12" height="12" fill="black"/>
<rect x="480" y="84" width="12" height="12" fill="black"/>
<rect x="48" y="96" width="12" height="12" fill="black"/>
<rect x="72" y="96" width="12" height="12" fill="black"/>
<rect x="84" y="96" width="12" height="12" fill="black"/>
<rect x="96" y="96" width="12" height="12" fill="black"/>
<rect x="120" y="96" width="12" height="12" fill="black"/>
<rect x="156" y="96" width="12" height="12" fill="black"/>
<rect x="168" y="96" width="12" height="12" fill="black"/>
<rect x="180" y="96" width="12" height="12" fill="black"/>
<rect x="192" y="96" width="12" height="12" fill="black"/>
<rect x="204" y="96" width="12" height="12" fill="black"/>
<rect x="216" y="96" width="12" height="12" fill="black"/>
<rect x="228" y="96" width="12" height="12" fill="black"/>
<rect x="240" y="96" width="12" height="12" fill="black"/>
<rect x="252" y="96" width="12" height="12" fill="black"/>
<rect x="264" y="96" width="12" height="12" fill="black"/>
<rect x="276" y="96" width="12" height="12" fill="black"/>
<rect x="288" y="96" width="12" height="12" fill="black"/>
<rect x="300" y="96" width="12" height="12" fill="black"/>
<rect x="312" y="96" width="12" height="12" fill="black"/>
<rect x="336" y="96" width="12" height="12" fill="black"/>
<rect x="348" y="96" width="12" height="12" fill="black"/>
<rect x="360" y="96" width="12" height="12" fill="black"/>
<rect x="384" y="96" width="12" height="12" fill="black"/>
<rect x="408" y="96" width="12" height="12" fill="black"/>
<rect x="432" y="96" width="12" height="12" fill="black"/>
<rect x="444" y="96" width="12" height="12" fill="black"/>
<rect x="456" y="96" width="12" height="12" fill="black"/>
<rect x="480" y="96" width="12" height="12" fill="black"/>
<rect x="48" y="108" width="12" height="12" fill="black"/>
<rect x="120" y="108" width="12" height="12" fill="black"/>
<rect x="144" y="108" width="12" height="12" fill="black"/>
<rect x="204" y="108" width="12" height="12" fill="black"/>
<rect x="228" y="108" width="12" height="12" fill="black"/>
<rect x="300" y="108" width="12" height="12" fill="black"/>
<rect x="384" y="108" width="12" height="12" fill="black"/>
<rect x="408" y="108" width="12" height="12" fill="black"/>
<rect x="480" y="108" width="12" height="12" fill="black"/>
<rect x="48" y="120" width="12" height="12" fill="black"/>
<rect x="60" y="120" width="12" height="12" fill="black"/>
<rect x="72" y="120" width="12" height="12" fill="black"/>
<rect x="84" y="120" width="12" height="12" fill="black"/>
<rect x="96" y="120" width="12" height="12" fill="black"/>
<rect x="108" y="120" width="12" height="12" fill="black"/>
<rect x="120" y="120" width="12" height="12" fill="black"/>
<rect x="168" y="120" width="12" height="12" fill="black"/>
<rect x="192" y="120" width="12" height="12" fill="black"/>
<rect x="216" y="120" width="12" height="12" fill="black"/>
<rect x="240" y="120" width="12" height="12" fill="black"/>
<rect x="264" y="120" width="12" height="12" fill="black"/>
<rect x="288" y="120" width="12" height="12" fill="black"/>
<rect x="312" y="120" width="12" height="12" fill="black"/>
<rect x="336" y="120" width="12" height="12" fill="black"/>
<rect x="360" y="120" width="12" height="12" fill="black"/>
<rect x="384" y="120" width="12" height="12" fill="black"/>
<rect x="408" y="120" width="12" height="12" fill="black"/>
<rect x="420" y="120" width="12" height="12" fill="black"/>
<rect x="432" y="120" width="12" height="12" fill="black"/>
<rect x="444" y="120" width="12" height="12" fill="black"/>
<rect x="456" y="120" width="12" height="12" fill="black"/>
<rect x="468" y="120" width="12" height="12" fill="black"/>
<rect x="480" y="120" width="12" height="12" fill="black"/>
<rect x="252" y="132" width="12" height="12" fill="black"/>
<rect x="276" y="132" width="12" height="12" fill="black"/>
<rect x="300" y="132" width="12" height="12" fill="black"/>
<rect x="348" y="132" width="12" height="12" fill="black"/>
<rect x="372" y="132" width="12" height="12" fill="black"/>
<rect x="384" y="132" width="12" height="12" fill="black"/>
<rect x="60" y="144" width="12" height="12" fill="black"/>
<rect x="108" y="144" width="12" height="12" fill="black"/>
<rect x="120" y="144" width="12" height="12" fill="black"/>
<rect x="156" y="144" width="12" height="12" fill="black"/>
<rect x="168" y="144" width="12" height="12" fill="black"/>
<rect x="180" y="144" width="12" height="12" fill="black"/>
<rect x="192" y="144" width="12" height="12" fill="black"/>
<rect x="228" y="144" width="12" height="12" fill="black"/>
<rect x="240" y="144" width="12" height="12" fill="black"/>
<rect x="252" y="144" width="12" height="12" fill="black"/>
<rect x="264" y="144" width="12" height="12" fill="black"/>
<rect x="312" y="144" width="12" height="12" fill="black"/>
<rect x="324" y="144" width="12" height="12" fill="black"/>
<rect x="360" y="144" width="12" height="12" fill="black"/>
<rect x="372" y="144" width="12" height="12" fill="black"/>
<rect x="384" y="144" width="12" height="12" fill="black"/>
<rect x="420" y="144" width="12" height="12" fill="black"/>
<rect x="444" y="144" width="12" height="12" fill="black"/>
<rect x="456" y="144" width="12" height="12" fill="black"/>
<rect x="480" y="144" width="12" height="12" fill="black"/>
<rect x="204" y="156" width="12" height="12" fill="black"/>
<rect x="228" y="156" width="12" height="12" fill="black"/>
<rect x="240" y="156" width="12" height="12" fill="black"/>
<rect x="252" y="156" width="12" height="12" fill="black"/>
<rect x="372" y="156" width="12" height="12" fill="black"/>
<rect x="396" y="156" width="12" height="12" fill="black"/>
<rect x="468" y="156" width="12" height="12" fill="black"/>
<rect x="48" y="168" width="12" height="12" fill="black"/>
<rect x="60" y="168" width="12" height="12" fill="black"/>
<rect x="72" y="168" width="12" height="12" fill="black"/>
<rect x="84" y="168" width="12" height="12" fill="black"/>
<rect x="96" y="168" width="12" height="12" fill="black"/>
<rect x="108" y="168" width="12" height="12" fill="black"/>
<rect x="120" y="168" width="12" height="12" fill="black"/>
<rect x="132" y="168" width="12" height="12" fill="black"/>
<rect x="144" y="168" width="12" height="12" fill="black"/>
<rect x="156" y="168" width="12" height="12" fill="black"/>
<rect x="168" y="168" width="12" height="12" fill="black"/>
<rect x="180" y="168" width="12" height="12" fill="black"/>
<rect x="192" y="168" width="12" height="12" fill="black"/>
<rect x="216" y="168" width="12" height="12" fill="black"/>
<rect x="228" y="168" width="12" height="12" fill="black"/>
<rect x="288" y="168" width="12" height="12" fill="black"/>
<rect x="324" y="168" width="12" height="12" fill="black"/>
<rect x="360" y="168" width="12" height="12" fill="black"/>
<rect x="384" y="168" width="12" height="12" fill="black"/>
<rect x="396" y="168" width="12" height="12" fill="black"/>
<rect x="408" y="168" width="12" height="12" fill="black"/>
<rect x="444" y="168" width="12" height="12" fill="black"/>
<rect x="480" y="168" width="12" height="12" fill="black"/>
<rect x="204" y="180" width="12" height="12" fill="black"/>
<rect x="216" y="180" width="12" height="12" fill="black"/>
<rect x="228" y="180" width="12" height="12" fill="black"/>
<rect x="240" y="180" width="12" height="12" fill="black"/>
<rect x="264" y="180" width="12" height="12" fill="black"/>
<rect x="312" y="180" width="12" height="12" fill="black"/>
<rect x="324" y="180" width="12" height="12" fill="black"/>
<rect x="336" y="180" width="12" height="12" fill="black"/>
<rect x="396" y="180" width="12" height="12" fill="black"/>
<rect x="444" y="180" width="12" height="12" fill="black"/>
<rect x="480" y="180" width="12" height="12" fill="black"/>
<rect x="48" y="192" width="12" height="12" fill="black"/>
<rect x="60" y="192" width="12" height="12" fill="black"/>
<rect x="72" y="192" width="12" height="12" fill="black"/>
<rect x="84" y="192" width="12" height="12" fill="black"/>
<rect x="96" y="192" width="12" height="12" fill="black"/>
<rect x="108" y="192" width="12" height="12" fill="black"/>
<rect x="120" y="192" width="12" height="12" fill="black"/>
<rect x="132" y="192" width="12" height="12" fill="black"/>
<rect x="144" y="192" width="12" height="12" fill="black"/>
<rect x="156" y="192" width="12" height="12" fill="black"/>
<rect x="168" y="192" width="12" height="12" fill="black"/>
<rect x="180" y="192" width="12" height="12" fill="black"/>
<rect x="192" y="192" width="12" height="12" fill="black"/>
<rect x="204" y="192" width="12" height="12" fill="black"/>
<rect x="240" y="192" width="12" height="12" fill="black"/>
<rect x="312" y="192" width="12" height="12" fill="black"/>
<rect x="324" y="192" width="12" height="12" fill="black"/>
<rect x="360" y="192" width="12" height="12" fill="black"/>
<rect x="372" y="192" width="12" height="12" fill="black"/>
<rect x="384" y="192" width="12" height="12" fill="black"/>
<rect x="408" y="192" width="12" height="12" fill="black"/>
<rect x="432" y="192" width="12" height="12" fill="black"/>
<rect x="444" y="192" width="12" height="12" fill="black"/>
<rect x="456" y="192" width="12" height="12" fill="black"/>
<rect x="468" y="192" width="12" height="12" fill="black"/>
<rect x="480" y="192" width="12" height="12" fill="black"/>
<rect x="204" y="204" width="12" height="12" fill="black"/>
<rect x="216" y="204" width="12" height="12" fill="black"/>
<rect x="300" y="204" width="12" height="12" fill="black"/>
<rect x="372" y="204" width="12" height="12" fill="black"/>
<rect x="396" y="204" width="12" height="12" fill="black"/>
<rect x="420" y="204" width="12" height="12" fill="black"/>
<rect x="444" y="204" width="12" height="12" fill="black"/>
<rect x="48" y="216" width="12" height="12" fill="black"/>
<rect x="60" y="216" width="12" height="12" fill="black"/>
<rect x="72" y="216" width="12" height="12" fill="black"/>
<rect x="84" y="216" width="12" height="12" fill="black"/>
<rect x="96" y="216" width="12" height="12" fill="black"/>
<rect x="108" y="216" width="12" height="12" fill="black"/>
<rect x="120" y="216" width="12" height="12" fill="black"/>
<rect x="132" y="216" width="12" height="12" fill="black"/>
<rect x="144" y="216" width="12" height="12" fill="black"/>
<rect x="156" y="216" width="12" height="12" fill="black"/>
<rect x="168" y="216" width="12" height="12" fill="black"/>
<rect x="180" y="216" width="12" height="12" fill="black"/>
<rect x="192" y="216" width="12" height="12" fill="black"/>
<rect x="216" y="216" width="12" height="12" fill="black"/>
<rect x="228" y="216" width="12" height="12" fill="black"/>
<rect x="240" y="216" width="12" height="12" fill="black"/>
<rect x="252" y="216" width="12" height="12" fill="black"/>
<rect x="264" y="216" width="12" height="12" fill="black"/>
<rect x="276" y="216" width="12" height="12" fill="black"/>
<rect x="288" y="216" width="12" height="12" fill="black"/>
<rect x="312" y="216" width="12" height="12" fill="black"/>
<rect x="324" y="216" width="12" height="12" fill="black"/>
<rect x="360" y="216" width="12" height="12" fill="black"/>
<rect x="372" y="216" width="12" height="12" fill="black"/>
<rect x="384" y="216" width="12" height="12" fill="black"/>
<rect x="396" y="216" width="12" height="12" fill="black"/>
<rect x="408" y="216" width="12" height="12" fill="black"/>
<rect x="420" y="216" width="12" height="12" fill="black"/>
<rect x="432" y="216" width="12" height="12" fill="black"/>
<rect x="456" y="216" width="12" height="12" fill="black"/>
<rect x="480" y="216" width="12" height="12" fill="black"/>
<rect x="216" y="228" width="12" height="12" fill="black"/>
<rect x="264" y="228" width="12" height="12" fill="black"/>
<rect x="324" y="228" width="12" height="12" fill="black"/>
<rect x="336" y="228" width="12" height="12" fill="black"/>
<rect x="348" y="228" width="12" height="12" fill="black"/>
<rect x="384" y="228" width="12" height="12" fill="black"/>
<rect x="432" y="228" width="12" height="12" fill="black"/>
<rect x="468" y="228" width="12" height="12" fill="black"/>
<rect x="48" y="240" width="12" height="12" fill="black"/>
<rect x="60" y="240" width="12" height="12" fill="black"/>
<rect x="72" y="240" width="12" height="12" fill="black"/>
<rect x="84" y="240" width="12" height="12" fill="black"/>
<rect x="96" y="240" width="12" height="12" fill="black"/>
<rect x="108" y="240" width="12" height="12" fill="black"/>
<rect x="120" y="240" width="12" height="12" fill="black"/>
<rect x="132" y="240" width="12" height="12" fill="black"/>
<rect x="144" y="240" width="12" height="12" fill="black"/>
<rect x="156" y="240" width="12" height="12" fill="black"/>
<rect x="168" y="240" width="12" height="12" fill="black"/>
<rect x="180" y="240" width="12" height="12" fill="black"/>
<rect x="192" y="240" width="12" height="12" fill="black"/>
<rect x="216" y="240" width="12" height="12" fill="black"/>
<rect x="240" y="240" width="12" height="12" fill="black"/>
<rect x="264" y="240" width="12" height="12" fill="black"/>
<rect x="312" y="240" width="12" height="12" fill="black"/>
<rect x="324" y="240" width="12" height="12" fill="black"/>
<rect x="336" y="240" width="12" height="12" fill="black"/>
<rect x="348" y="240" width="12" height="12" fill="black"/>
<rect x="360" y="240" width="12" height="12" fill="black"/>
<rect x="372" y="240" width="12" height="12" fill="black"/>
<rect x="384" y="240" width="12" height="12" fill="black"/>
<rect x="408" y="240" width="12" height="12" fill="black"/>
<rect x="432" y="240" width="12" height="12" fill="black"/>
<rect x="216" y="252" width="12" height="12" fill="black"/>
<rect x="264" y="252" width="12" height="12" fill="black"/>
<rect x="324" y="252" width="12" height="12" fill="black"/>
<rect x="360" y="252" width="12" height="12" fill="black"/>
<rect x="384" y="252" width="12" height="12" fill="black"/>
<rect x="432" y="252" width="12" height="12" fill="black"/>
<rect x="456" y="252" width="12" height="12" fill="black"/>
<rect x="48" y="264" width="12" height="12" fill="black"/>
<rect x="60" y="264" width="12" height="12" fill="black"/>
<rect x="72" y="264" width="12" height="12" fill="black"/>
<rect x="84" y="264" width="12" height="12" fill="black"/>
<rect x="96" y="264" width="12" height="12" fill="black"/>
<rect x="108" y="264" width="12" height="12" fill="black"/>
<rect x="120" y="264" width="12" height="12" fill="black"/>
<rect x="132" y="264" width="12" height="12" fill="black"/>
<rect x="144" y="264" width="12" height="12" fill="black"/>
<rect x="156" y="264" width="12" height="12" fill="black"/>
<rect x="168" y="264" width="12" height="12" fill="black"/>
<rect x="180" y="264" width="12" height="12" fill="black"/>
<rect x="192" y="264" width="12" height="12" fill="black"/>
<rect x="216" y="264" width="12" height="12" fill="black"/>
<rect x="228" y="264" width="12" height="12" fill="black"/>
<rect x="240" y="264" width="12" height="12" fill="black"/>
<rect x="252" y="264" width="12" height="12" fill="black"/>
<rect x="264" y="264" width="12" height="12" fill="black"/>
<rect x="276" y="264" width="12" height="12" fill="black"/>
<rect x="288" y="264" width="12" height="12" fill="black"/>
<rect x="300" y="264" width="12" height="12" fill="black"/>
<rect x="312" y="264" width="12" height="12" fill="black"/>
<rect x="324" y="264" width="12" height="12" fill="black"/>
<rect x="348" y="264" width="12" height="12" fill="black"/>
<rect x="360" y="264" width="12" height="12" fill="black"/>
<rect x="372" y="264" width="12" height="12" fill="black"/>
<rect x="384" y="264" width="12" height="12" fill="black"/>
<rect x="396" y="264" width="12" height="12" fill="black"/>
<rect x="408" y="264" width="12" height="12" fill="black"/>
<rect x="420" y="264" width="12" height="12" fill="black"/>
<rect x="432" y="264" width="12" height="12" fill="black"/>
<rect x="444" y="264" width="12" height="12" fill="black"/>
<rect x="480" y="264" width="12" height="12" fill="black"/>
<rect x="216" y="276" width="12" height="12" fill="black"/>
<rect x="228" y="276" width="12" height="12" fill="black"/>
<rect x="300" y="276" width="12" height="12" fill="black"/>
<rect x="336" y="276" width="12" height="12" fill="black"/>
<rect x="372" y="276" width="12" height="12" fill="black"/>
<rect x="468" y="276" width="12" height="12" fill="black"/>
<rect x="480" y="276" width="12" height="12" fill="black"/>
<rect x="48" y="288" width="12" height="12" fill="black"/>
<rect x="60" y="288" width="12" height="12" fill="black"/>
<rect x="72" y="288" width="12" height="12" fill="black"/>
<rect x="84" y="288" width="12" height="12" fill="black"/>
<rect x="96" y="288" width="12" height="12" fill="black"/>
<rect x="108" y="288" width="12" height="12" fill="black"/>
<rect x="120" y="288" width="12" height="12" fill="black"/>
<rect x="132" y="288" width="12" height="12" fill="black"/>
<rect x="144" y="288" width="12" height="12" fill="black"/>
<rect x="156" y="288" width="12" height="12" fill="black"/>
<rect x="168" y="288" width="12" height="12" fill="black"/>
<rect x="180" y="288" width="12" height="12" fill="black"/>
<rect x="192" y="288" width="12" height="12" fill="black"/>
<rect x="228" y="288" width="12" height="12" fill="black"/>
<rect x="240" y="288" width="12" height="12" fill="black"/>
<rect x="264" y="288" width="12" height="12" fill="black"/>
<rect x="300" y="288" width="12" height="12" fill="black"/>
<rect x="312" y="288" width="12" height="12" fill="black"/>
<rect x="324" y="288" width="12" height="12" fill="black"/>
<rect x="336" y="288" width="12" height="12" fill="black"/>
<rect x="360" y="288" width="12" height="12" fill="black"/>
<rect x="372" y="288" width="12" height="12" fill="black"/>
<rect x="384" y="288" width="12" height="12" fill="black"/>
<rect x="396" y="288" width="12" height="12" fill="black"/>
<rect x="420" y="288" width="12" height="12" fill="black"/>
<rect x="432" y="288" width="12" height="12" fill="black"/>
<rect x="444" y="288" width="12" height="12" fill="black"/>
<rect x="300" y="300" width="12" height="12" fill="black"/>
<rect x="312" y="300" width="12" height="12" fill="black"/>
<rect x="408" y="300" width="12" height="12" fill="black"/>
<rect x="420" y="300" width="12" height="12" fill="black"/>
<rect x="48" y="312" width="12" height="12" fill="black"/>
<rect x="60" y="312" width="12" height="12" fill="black"/>
<rect x="72" y="312" width="12" height="12" fill="black"/>
<rect x="84" y="312" width="12" height="12" fill="black"/>
<rect x="96" y="312" width="12" height="12" fill="black"/>
<rect x="108" y="312" width="12" height="12" fill="black"/>
<rect x="120" y="312" width="12" height="12" fill="black"/>
<rect x="132" y="312" width="12" height="12" fill="black"/>
<rect x="144" y="312" width="12" height="12" fill="black"/>
<rect x="156" y="312" width="12" height="12" fill="black"/>
<rect x="168" y="312" width="12" height="12" fill="black"/>
<rect x="180" y="312" width="12" height="12" fill="black"/>
<rect x="192" y="312" width="12" height="12" fill="black"/>
<rect x="204" y="312" width="12" height="12" fill="black"/>
<rect x="264" y="312" width="12" height="12" fill="black"/>
<rect x="276" y="312" width="12" height="12" fill="black"/>
<rect x="288" y="312" width="12" height="12" fill="black"/>
<rect x="300" y="312" width="12" height="12" fill="black"/>
<rect x="324" y="312" width="12" height="12" fill="black"/>
<rect x="336" y="312" width="12" height="12" fill="black"/>
<rect x="348" y="312" width="12" height="12" fill="black"/>
<rect x="372" y="312" width="12" height="12" fill="black"/>
<rect x="384" y="312" width="12" height="12" fill="black"/>
<rect x="408" y="312" width="12" height="12" fill="black"/>
<rect x="420" y="312" width="12" height="12" fill="black"/>
<rect x="432" y="312" width="12" height="12" fill="black"/>
<rect x="444" y="312" width="12" height="12" fill="black"/>
<rect x="456" y="312" width="12" height="12" fill="black"/>
<rect x="480" y="312" width="12" height="12" fill="black"/>
<rect x="240" y="324" width="12" height="12" fill="black"/>
<rect x="252" y="324" width="12" height="12" fill="black"/>
<rect x="264" y="324" width="12" height="12" fill="black"/>
<rect x="312" y="324" width="12" height="12" fill="black"/>
<rect x="372" y="324" width="12" height="12" fill="black"/>
<rect x="444" y="324" width="12" height="12" fill="black"/>
<rect x="480" y="324" width="12" height="12" fill="black"/>
<rect x="48" y="336" width="12" height="12" fill="black"/>
<rect x="60" y="336" width="12" height="12" fill="black"/>
<rect x="72" y="336" width="12" height="12" fill="black"/>
<rect x="84" y="336" width="12" height="12" fill="black"/>
<rect x="96" y="336" width="12" height="12" fill="black"/>
<rect x="108" y="336" width="12" height="12" fill="black"/>
<rect x="120" y="336" width="12" height="12" fill="black"/>
<rect x="132" y="336" width="12" height="12" fill="black"/>
<rect x="144" y="336" width="12" height="12" fill="black"/>
<rect x="156" y="336" width="12" height="12" fill="black"/>
<rect x="168" y="336" width="12" height="12" fill="black"/>
<rect x="180" y="336" width="12" height="12" fill="black"/>
<rect x="192" y="336" width="12" height="12" fill="black"/>
<rect x="252" y="336" width="12" height="12" fill="black"/>
<rect x="300" y="336" width="12" height="12" fill="black"/>
<rect x="312" y="336" width="12" height="12" fill="black"/>
<rect x="324" y="336" width="12" height="12" fill="black"/>
<rect x="360" y="336" width="12" height="12" fill="black"/>
<rect x="372" y="336" width="12" height="12" fill="black"/>
<rect x="396" y="336" width="12" height="12" fill="black"/>
<rect x="408" y="336" width="12" height="12" fill="black"/>
<rect x="420" y="336" width="12" height="12" fill="black"/>
<rect x="456" y="336" width="12" height="12" fill="black"/>
<rect x="204" y="348" width="12" height="12" fill="black"/>
<rect x="228" y="348" width="12" height="12" fill="black"/>
<rect x="252" y="348" width="12" height="12" fill="black"/>
<rect x="264" y="348" width="12" height="12" fill="black"/>
<rect x="312" y="348" width="12" height="12" fill="black"/>
<rect x="372" y="348" width="12" height="12" fill="black"/>
<rect x="384" y="348" width="12" height="12" fill="black"/>
<rect x="396" y="348" width="12" height="12" fill="black"/>
<rect x="444" y="348" width="12" height="12" fill="black"/>
<rect x="48" y="360" width="12" height="12" fill="black"/>
<rect x="60" y="360" width="12" height="12" fill="black"/>
<rect x="72" y="360" width="12" height="12" fill="black"/>
<rect x="84" y="360" width="12" height="12" fill="black"/>
<rect x="96" y="360" width="12" height="12" fill="black"/>
<rect x="108" y="360" width="12" height="12" fill="black"/>
<rect x="120" y="360" width="12" height="12" fill="black"/>
<rect x="132" y="360" width="12" height="12" fill="black"/>
<rect x="144" y="360" width="12" height="12" fill="black"/>
<rect x="156" y="360" width="12" height="12" fill="black"/>
<rect x="168" y="360" width="12" height="12" fill="black"/>
<rect x="180" y="360" width="12" height="12" fill="black"/>
<rect x="192" y="360" width="12" height="12" fill="black"/>
<rect x="228" y="360" width="12" height="12" fill="black"/>
<rect x="240" y="360" width="12" height="12" fill="black"/>
<rect x="252" y="360" width="12" height="12" fill="black"/>
<rect x="264" y="360" width="12" height="12" fill="black"/>
<rect x="276" y="360" width="12" height="12" fill="black"/>
<rect x="288" y="360" width="12" height="12" fill="black"/>
<rect x="300" y="360" width="12" height="12" fill="black"/>
<rect x="312" y="360" width="12" height="12" fill="black"/>
<rect x="336" y="360" width="12" height="12" fill="black"/>
<rect x="360" y="360" width="12" height="12" fill="black"/>
<rect x="384" y="360" width="12" height="12" fill="black"/>
<rect x="408" y="360" width="12" height="12" fill="black"/>
<rect x="420" y="360" width="12" height="12" fill="black"/>
<rect x="432" y="360" width="12" height="12" fill="black"/>
<rect x="456" y="360" width="12" height="12" fill="black"/>
<rect x="480" y="360" width="12" height="12" fill="black"/>
<rect x="204" y="372" width="12" height="12" fill="black"/>
<rect x="216" y="372" width="12" height="12" fill="black"/>
<rect x="228" y="372" width="12" height="12" fill="black"/>
<rect x="348" y="372" width="12" height="12" fill="black"/>
<rect x="384" y="372" width="12" height="12" fill="black"/>
<rect x="420" y="372" width="12" height="12" fill="black"/>
<rect x="432" y="372" width="12" height="12" fill="black"/>
<rect x="444" y="372" width="12" height="12" fill="black"/>
<rect x="48" y="384" width="12" height="12" fill="black"/>
<rect x="60" y="384" width="12" height="12" fill="black"/>
<rect x="72" y="384" width="12" height="12" fill="black"/>
<rect x="84" y="384" width="12" height="12" fill="black"/>
<rect x="96" y="384" width="12" height="12" fill="black"/>
<rect x="108" y="384" width="12" height="12" fill="black"/>
<rect x="120" y="384" width="12" height="12" fill="black"/>
<rect x="132" y="384" width="12" height="12" fill="black"/>
<rect x="144" y="384" width="12" height="12" fill="black"/>
<rect x="156" y="384" width="12" height="12" fill="black"/>
<rect x="168" y="384" width="12" height="12" fill="black"/>
<rect x="180" y="384" width="12" height="12" fill="black"/>
<rect x="192" y="384" width="12" height="12" fill="black"/>
<rect x="216" y="384" width="12" height="12" fill="black"/>
<rect x="228" y="384" width="12" height="12" fill="black"/>
<rect x="240" y="384" width="12" height="12" fill="black"/>
<rect x="252" y="384" width="12" height="12" fill="black"/>
<rect x="264" y="384" width="12" height="12" fill="black"/>
<rect x="300" y="384" width="12" height="12" fill="black"/>
<rect x="312" y="384" width="12" height="12" fill="black"/>
<rect x="324" y="384" width="12" height="12" fill="black"/>
<rect x="336" y="384" width="12" height="12" fill="black"/>
<rect x="360" y="384" width="12" height="12" fill="black"/>
<rect x="372" y="384" width="12" height="12" fill="black"/>
<rect x="384" y="384" width="12" height="12" fill="black"/>
<rect x="396" y="384" width="12" height="12" fill="black"/>
<rect x="408" y="384" width="12" height="12" fill="black"/>
<rect x="420" y="384" width="12" height="12" fill="black"/>
<rect x="432" y="384" width="12" height="12" fill="black"/>
<rect x="456" y="384" width="12" height="12" fill="black"/>
<rect x="468" y="384" width="12" height="12" fill="black"/>
<rect x="480" y="384" width="12" height="12" fill="black"/>
<rect x="144" y="396" width="12" height="12" fill="black"/>
<rect x="204" y="396" width="12" height="12" fill="black"/>
<rect x="216" y="396" width="12" height="12" fill="black"/>
<rect x="264" y="396" width="12" height="12" fill="black"/>
<rect x="300" y="396" width="12" height="12" fill="black"/>
<rect x="312" y="396" width="12" height="12" fill="black"/>
<rect x="324" y="396" width="12" height="12" fill="black"/>
<rect x="348" y="396" width="12" height="12" fill="black"/>
<rect x="384" y="396" width="12" height="12" fill="black"/>
<rect x="432" y="396" width="12" height="12" fill="black"/>
<rect x="48" y="408" width="12" height="12" fill="black"/>
<rect x="60" y="408" width="12" height="12" fill="black"/>
<rect x="72" y="408" width="12" height="12" fill="black"/>
<rect x="84" y="408" width="12" height="12" fill="black"/>
<rect x="96" y="408" width="12" height="12" fill="black"/>
<rect x="108" y="408" width="12" height="12" fill="black"/>
<rect x="120" y="408" width="12" height="12" fill="black"/>
<rect x="156" y="408" width="12" height="12" fill="black"/>
<rect x="168" y="408" width="12" height="12" fill="black"/>
<rect x="180" y="408" width="12" height="12" fill="black"/>
<rect x="192" y="408" width="12" height="12" fill="black"/>
<rect x="204" y="408" width="12" height="12" fill="black"/>
<rect x="216" y="408" width="12" height="12" fill="black"/>
<rect x="240" y="408" width="12" height="12" fill="black"/>
<rect x="264" y="408" width="12" height="12" fill="black"/>
<rect x="276" y="408" width="12" height="12" fill="black"/>
<rect x="288" y="408" width="12" height="12" fill="black"/>
<rect x="300" y="408" width="12" height="12" fill="black"/>
<rect x="312" y="408" width="12" height="12" fill="black"/>
<rect x="348" y="408" width="12" height="12" fill="black"/>
<rect x="360" y="408" width="12" height="12" fill="black"/>
<rect x="384" y="408" width="12" height="12" fill="black"/>
<rect x="408" y="408" width="12" height="12" fill="black"/>
<rect x="432" y="408" width="12" height="12" fill="black"/>
<rect x="444" y="408" width="12" height="12" fill="black"/>
<rect x="480" y="408" width="12" height="12" fill="black"/>
<rect x="48" y="420" width="12" height="12" fill="black"/>
<rect x="120" y="420" width="12" height="12" fill="black"/>
<rect x="144" y="420" width="12" height="12" fill="black"/>
<rect x="204" y="420" width="12" height="12" fill="black"/>
<rect x="216" y="420" width="12" height="12" fill="black"/>
<rect x="264" y="420" width="12" height="12" fill="black"/>
<rect x="312" y="420" width="12" height="12" fill="black"/>
<rect x="360" y="420" width="12" height="12" fill="black"/>
<rect x="384" y="420" width="12" height="12" fill="black"/>
<rect x="432" y="420" width="12" height="12" fill="black"/>
<rect x="444" y="420" width="12" height="12" fill="black"/>
<rect x="48" y="432" width="12" height="12" fill="black"/>
<rect x="72" y="432" width="12" height="12" fill="black"/>
<rect x="84" y="432" width="12" height="12" fill="black"/>
<rect x="96" y="432" width="12" height="12" fill="black"/>
<rect x="120" y="432" width="12" height="12" fill="black"/>
<rect x="156" y="432" width="12" height="12" fill="black"/>
<rect x="168" y="432" width="12" height="12" fill="black"/>
<rect x="180" y="432" width="12" height="12" fill="black"/>
<rect x="192" y="432" width="12" height="12" fill="black"/>
<rect x="216" y="432" width="12" height="12" fill="black"/>
<rect x="228" y="432" width="12" height="12" fill="black"/>
<rect x="240" y="432" width="12" height="12" fill="black"/>
<rect x="252" y="432" width="12" height="12" fill="black"/>
<rect x="264" y="432" width="12" height="12" fill="black"/>
<rect x="300" y="432" width="12" height="12" fill="black"/>
<rect x="312" y="432" width="12" height="12" fill="black"/>
<rect x="336" y="432" width="12" height="12" fill="black"/>
<rect x="360" y="432" width="12" height="12" fill="black"/>
<rect x="372" y="432" width="12" height="12" fill="black"/>
<rect x="384" y="432" width="12" height="12" fill="black"/>
<rect x="396" y="432" width="12" height="12" fill="black"/>
<rect x="408" y="432" width="12" height="12" fill="black"/>
<rect x="420" y="432" width="12" height="12" fill="black"/>
<rect x="432" y="432" width="12" height="12" fill="black"/>
<rect x="444" y="432" width="12" height="12" fill="black"/>
<rect x="456" y="432" width="12" height="12" fill="black"/>
<rect x="468" y="432" width="12" height="12" fill="black"/>
<rect x="480" y="432" width="12" height="12" fill="black"/>
<rect x="48" y="444" width="12" height="12" fill="black"/>
<rect x="72" y="444" width="12" height="12" fill="black"/>
<rect x="84" y="444" width="12" height="12" fill="black"/>
<rect x="96" y="444" width="12" height="12" fill="black"/>
<rect x="120" y="444" width="12" height="12" fill="black"/>
<rect x="204" y="444" width="12" height="12" fill="black"/>
<rect x="216" y="444" width="12" height="12" fill="black"/>
<rect x="252" y="444" width="12" height="12" fill="black"/>
<rect x="300" y="444" width="12" height="12" fill="black"/>
<rect x="312" y="444" width="12" height="12" fill="black"/>
<rect x="324" y="444" width="12" height="12" fill="black"/>
<rect x="372" y="444" width="12" height="12" fill="black"/>
<rect x="396" y="444" width="12" height="12" fill="black"/>
<rect x="408" y="444" width="12" height="12" fill="black"/>
<rect x="456" y="444" width="12" height="12" fill="black"/>
<rect x="48" y="456" width="12" height="12" fill="black"/>
<rect x="72" y="456" width="12" height="12" fill="black"/>
<rect x="84" y="456" width="12" height="12" fill="black"/>
<rect x="96" y="456" width="12" height="12" fill="black"/>
<rect x="120" y="456" width="12" height="12" fill="black"/>
<rect x="156" y="456" width="12" height="12" fill="black"/>
<rect x="168" y="456" width="12" height="12" fill="black"/>
<rect x="180" y="456" width="12" height="12" fill="black"/>
<rect x="192" y="456" width="12" height="12" fill="black"/>
<rect x="204" y="456" width="12" height="12" fill="black"/>
<rect x="216" y="456" width="12" height="12" fill="black"/>
<rect x="228" y="456" width="12" height="12" fill="black"/>
<rect x="240" y="456" width="12" height="12" fill="black"/>
<rect x="252" y="456" width="12" height="12" fill="black"/>
<rect x="264" y="456" width="12" height="12" fill="black"/>
<rect x="276" y="456" width="12" height="12" fill="black"/>
<rect x="288" y="456" width="12" height="12" fill="black"/>
<rect x="300" y="456" width="12" height="12" fill="black"/>
<rect x="312" y="456" width="12" height="12" fill="black"/>
<rect x="384" y="456" width="12" height="12" fill="black"/>
<rect x="396" y="456" width="12" height="12" fill="black"/>
<rect x="432" y="456" width="12" height="12" fill="black"/>
<rect x="456" y="456" width="12" height="12" fill="black"/>
<rect x="468" y="456" width="12" height="12" fill="black"/>
<rect x="480" y="456" width="12" height="12" fill="black"/>
<rect x="48" y="468" width="12" height="12" fill="black"/>
<rect x="120" y="468" width="12" height="12" fill="black"/>
<rect x="144" y="468" width="12" height="12" fill="black"/>
<rect x="228" y="468" width="12" height="12" fill="black"/>
<rect x="240" y="468" width="12" height="12" fill="black"/>
<rect x="252" y="468" width="12" height="12" fill="black"/>
<rect x="300" y="468" width="12" height="12" fill="black"/>
<rect x="324" y="468" width="12" height="12" fill="black"/>
<rect x="336" y="468" width="12" height="12" fill="black"/>
<rect x="348" y="468" width="12" height="12" fill="black"/>
<rect x="396" y="468" width="12" height="12" fill="black"/>
<rect x="420" y="468" width="12" height="12" fill="black"/>
<rect x="444" y="468" width="12" height="12" fill="black"/>
<rect x="48" y="480" width="12" height="12" fill="black"/>
<rect x="60" y="480" width="12" height="12" fill="black"/>
<rect x="72" y="480" width="12" height="12" fill="black"/>
<rect x="84" y="480" width="12" height="12" fill="black"/>
<rect x="96" y="480" width="12" height="12" fill="black"/>
<rect x="108" y="480" width="12" height="12" fill="black"/>
<rect x="120" y="480" width="12" height="12" fill="black"/>
<rect x="156" y="480" width="12" height="12" fill="black"/>
<rect x="168" y="480" width="12" height="12" fill="black"/>
<rect x="180" y="480" width="12" height="12" fill="black"/>
<rect x="192" y="480" width="12" height="12" fill="black"/>
<rect x="204" y="480" width="12" height="12" fill="black"/>
<rect x="216" y="480" width="12" height="12" fill="black"/>
<rect x="228" y="480" width="12" height="12" fill="black"/>
<rect x="300" y="480" width="12" height="12" fill="black"/>
<rect x="312" y="480" width="12" height="12" fill="black"/>
<rect x="324" y="480" width="12" height="12" fill="black"/>
<rect x="336" y="480" width="12" height="12" fill="black"/>
<rect x="360" y="480" width="12" height="12" fill="black"/>
<rect x="384" y="480" width="12" height="12" fill="black"/>
<rect x="396" y="480" width="12" height="12" fill="black"/>
<rect x="408" y="480" width="12" height="12" fill="black"/>
<rect x="432" y="480" width="12" height="12" fill="black"/>
<rect x="444" y="480" width="12" height="12" fill="black"/>
<rect x="456" y="480" width="12" height="12" fill="black"/>
<rect x="480" y="480" width="12" height="12" fill="black"/>
<text x="270" y="530" text-anchor="middle" font-family="Arial" font-size="12" fill="black">URIEL ALEJANDRO  ANDRADE HERMOSA  - 2100000014</text>
</svg>
