<?xml version="1.0" encoding="UTF-8" standalone="no"?>
<!DOCTYPE svg PUBLIC "-//W3C//DTD SVG 1.1//EN" "http://www.w3.org/Graphics/SVG/1.1/DTD/svg11.dtd">
<svg width="164px" height="164px" version="1.1" xmlns="http://www.w3.org/2000/svg">
  <desc>Código QR Bancario</desc>
  <rect width="100%" height="100%" fill="white" />
  <rect x="16" y="16" width="4" height="4" fill="black" />
  <rect x="20" y="16" width="4" height="4" fill="black" />
  <rect x="24" y="16" width="4" height="4" fill="black" />
  <rect x="28" y="16" width="4" height="4" fill="black" />
  <rect x="32" y="16" width="4" height="4" fill="black" />
  <rect x="36" y="16" width="4" height="4" fill="black" />
  <rect x="40" y="16" width="4" height="4" fill="black" />
  <rect x="48" y="16" width="4" height="4" fill="black" />
  <rect x="52" y="16" width="4" height="4" fill="black" />
  <rect x="64" y="16" width="4" height="4" fill="black" />
  <rect x="68" y="16" width="4" height="4" fill="black" />
  <rect x="76" y="16" width="4" height="4" fill="black" />
  <rect x="80" y="16" width="4" height="4" fill="black" />
  <rect x="84" y="16" width="4" height="4" fill="black" />
  <rect x="88" y="16" width="4" height="4" fill="black" />
  <rect x="96" y="16" width="4" height="4" fill="black" />
  <rect x="100" y="16" width="4" height="4" fill="black" />
  <rect x="108" y="16" width="4" height="4" fill="black" />
  <rect x="112" y="16" width="4" height="4" fill="black" />
  <rect x="120" y="16" width="4" height="4" fill="black" />
  <rect x="124" y="16" width="4" height="4" fill="black" />
  <rect x="128" y="16" width="4" height="4" fill="black" />
  <rect x="132" y="16" width="4" height="4" fill="black" />
  <rect x="136" y="16" width="4" height="4" fill="black" />
  <rect x="140" y="16" width="4" height="4" fill="black" />
  <rect x="144" y="16" width="4" height="4" fill="black" />
  <rect x="16" y="20" width="4" height="4" fill="black" />
  <rect x="40" y="20" width="4" height="4" fill="black" />
  <rect x="52" y="20" width="4" height="4" fill="black" />
  <rect x="56" y="20" width="4" height="4" fill="black" />
  <rect x="64" y="20" width="4" height="4" fill="black" />
  <rect x="76" y="20" width="4" height="4" fill="black" />
  <rect x="80" y="20" width="4" height="4" fill="black" />
  <rect x="92" y="20" width="4" height="4" fill="black" />
  <rect x="96" y="20" width="4" height="4" fill="black" />
  <rect x="108" y="20" width="4" height="4" fill="black" />
  <rect x="112" y="20" width="4" height="4" fill="black" />
  <rect x="120" y="20" width="4" height="4" fill="black" />
  <rect x="144" y="20" width="4" height="4" fill="black" />
  <rect x="16" y="24" width="4" height="4" fill="black" />
  <rect x="24" y="24" width="4" height="4" fill="black" />
  <rect x="28" y="24" width="4" height="4" fill="black" />
  <rect x="32" y="24" width="4" height="4" fill="black" />
  <rect x="40" y="24" width="4" height="4" fill="black" />
  <rect x="48" y="24" width="4" height="4" fill="black" />
  <rect x="60" y="24" width="4" height="4" fill="black" />
  <rect x="64" y="24" width="4" height="4" fill="black" />
  <rect x="76" y="24" width="4" height="4" fill="black" />
  <rect x="80" y="24" width="4" height="4" fill="black" />
  <rect x="88" y="24" width="4" height="4" fill="black" />
  <rect x="92" y="24" width="4" height="4" fill="black" />
  <rect x="96" y="24" width="4" height="4" fill="black" />
  <rect x="100" y="24" width="4" height="4" fill="black" />
  <rect x="104" y="24" width="4" height="4" fill="black" />
  <rect x="120" y="24" width="4" height="4" fill="black" />
  <rect x="128" y="24" width="4" height="4" fill="black" />
  <rect x="132" y="24" width="4" height="4" fill="black" />
  <rect x="136" y="24" width="4" height="4" fill="black" />
  <rect x="144" y="24" width="4" height="4" fill="black" />
  <rect x="16" y="28" width="4" height="4" fill="black" />
  <rect x="24" y="28" width="4" height="4" fill="black" />
  <rect x="28" y="28" width="4" height="4" fill="black" />
  <rect x="32" y="28" width="4" height="4" fill="black" />
  <rect x="40" y="28" width="4" height="4" fill="black" />
  <rect x="48" y="28" width="4" height="4" fill="black" />
  <rect x="60" y="28" width="4" height="4" fill="black" />
  <rect x="64" y="28" width="4" height="4" fill="black" />
  <rect x="92" y="28" width="4" height="4" fill="black" />
  <rect x="120" y="28" width="4" height="4" fill="black" />
  <rect x="128" y="28" width="4" height="4" fill="black" />
  <rect x="132" y="28" width="4" height="4" fill="black" />
  <rect x="136" y="28" width="4" height="4" fill="black" />
  <rect x="144" y="28" width="4" height="4" fill="black" />
  <rect x="16" y="32" width="4" height="4" fill="black" />
  <rect x="24" y="32" width="4" height="4" fill="black" />
  <rect x="28" y="32" width="4" height="4" fill="black" />
  <rect x="32" y="32" width="4" height="4" fill="black" />
  <rect x="40" y="32" width="4" height="4" fill="black" />
  <rect x="56" y="32" width="4" height="4" fill="black" />
  <rect x="60" y="32" width="4" height="4" fill="black" />
  <rect x="72" y="32" width="4" height="4" fill="black" />
  <rect x="76" y="32" width="4" height="4" fill="black" />
  <rect x="80" y="32" width="4" height="4" fill="black" />
  <rect x="84" y="32" width="4" height="4" fill="black" />
  <rect x="88" y="32" width="4" height="4" fill="black" />
  <rect x="96" y="32" width="4" height="4" fill="black" />
  <rect x="100" y="32" width="4" height="4" fill="black" />
  <rect x="112" y="32" width="4" height="4" fill="black" />
  <rect x="120" y="32" width="4" height="4" fill="black" />
  <rect x="128" y="32" width="4" height="4" fill="black" />
  <rect x="132" y="32" width="4" height="4" fill="black" />
  <rect x="136" y="32" width="4" height="4" fill="black" />
  <rect x="144" y="32" width="4" height="4" fill="black" />
  <rect x="16" y="36" width="4" height="4" fill="black" />
  <rect x="40" y="36" width="4" height="4" fill="black" />
  <rect x="48" y="36" width="4" height="4" fill="black" />
  <rect x="56" y="36" width="4" height="4" fill="black" />
  <rect x="60" y="36" width="4" height="4" fill="black" />
  <rect x="80" y="36" width="4" height="4" fill="black" />
  <rect x="88" y="36" width="4" height="4" fill="black" />
  <rect x="92" y="36" width="4" height="4" fill="black" />
  <rect x="96" y="36" width="4" height="4" fill="black" />
  <rect x="112" y="36" width="4" height="4" fill="black" />
  <rect x="120" y="36" width="4" height="4" fill="black" />
  <rect x="144" y="36" width="4" height="4" fill="black" />
  <rect x="16" y="40" width="4" height="4" fill="black" />
  <rect x="20" y="40" width="4" height="4" fill="black" />
  <rect x="24" y="40" width="4" height="4" fill="black" />
  <rect x="28" y="40" width="4" height="4" fill="black" />
  <rect x="32" y="40" width="4" height="4" fill="black" />
  <rect x="36" y="40" width="4" height="4" fill="black" />
  <rect x="40" y="40" width="4" height="4" fill="black" />
  <rect x="56" y="40" width="4" height="4" fill="black" />
  <rect x="64" y="40" width="4" height="4" fill="black" />
  <rect x="72" y="40" width="4" height="4" fill="black" />
  <rect x="80" y="40" width="4" height="4" fill="black" />
  <rect x="88" y="40" width="4" height="4" fill="black" />
  <rect x="96" y="40" width="4" height="4" fill="black" />
  <rect x="104" y="40" width="4" height="4" fill="black" />
  <rect x="112" y="40" width="4" height="4" fill="black" />
  <rect x="120" y="40" width="4" height="4" fill="black" />
  <rect x="124" y="40" width="4" height="4" fill="black" />
  <rect x="128" y="40" width="4" height="4" fill="black" />
  <rect x="132" y="40" width="4" height="4" fill="black" />
  <rect x="136" y="40" width="4" height="4" fill="black" />
  <rect x="140" y="40" width="4" height="4" fill="black" />
  <rect x="144" y="40" width="4" height="4" fill="black" />
  <rect x="68" y="44" width="4" height="4" fill="black" />
  <rect x="72" y="44" width="4" height="4" fill="black" />
  <rect x="88" y="44" width="4" height="4" fill="black" />
  <rect x="92" y="44" width="4" height="4" fill="black" />
  <rect x="96" y="44" width="4" height="4" fill="black" />
  <rect x="20" y="48" width="4" height="4" fill="black" />
  <rect x="36" y="48" width="4" height="4" fill="black" />
  <rect x="40" y="48" width="4" height="4" fill="black" />
  <rect x="52" y="48" width="4" height="4" fill="black" />
  <rect x="68" y="48" width="4" height="4" fill="black" />
  <rect x="72" y="48" width="4" height="4" fill="black" />
  <rect x="76" y="48" width="4" height="4" fill="black" />
  <rect x="88" y="48" width="4" height="4" fill="black" />
  <rect x="92" y="48" width="4" height="4" fill="black" />
  <rect x="96" y="48" width="4" height="4" fill="black" />
  <rect x="104" y="48" width="4" height="4" fill="black" />
  <rect x="112" y="48" width="4" height="4" fill="black" />
  <rect x="124" y="48" width="4" height="4" fill="black" />
  <rect x="132" y="48" width="4" height="4" fill="black" />
  <rect x="136" y="48" width="4" height="4" fill="black" />
  <rect x="144" y="48" width="4" height="4" fill="black" />
  <rect x="16" y="52" width="4" height="4" fill="black" />
  <rect x="24" y="52" width="4" height="4" fill="black" />
  <rect x="44" y="52" width="4" height="4" fill="black" />
  <rect x="52" y="52" width="4" height="4" fill="black" />
  <rect x="56" y="52" width="4" height="4" fill="black" />
  <rect x="60" y="52" width="4" height="4" fill="black" />
  <rect x="64" y="52" width="4" height="4" fill="black" />
  <rect x="80" y="52" width="4" height="4" fill="black" />
  <rect x="92" y="52" width="4" height="4" fill="black" />
  <rect x="108" y="52" width="4" height="4" fill="black" />
  <rect x="20" y="56" width="4" height="4" fill="black" />
  <rect x="28" y="56" width="4" height="4" fill="black" />
  <rect x="32" y="56" width="4" height="4" fill="black" />
  <rect x="40" y="56" width="4" height="4" fill="black" />
  <rect x="44" y="56" width="4" height="4" fill="black" />
  <rect x="48" y="56" width="4" height="4" fill="black" />
  <rect x="68" y="56" width="4" height="4" fill="black" />
  <rect x="72" y="56" width="4" height="4" fill="black" />
  <rect x="96" y="56" width="4" height="4" fill="black" />
  <rect x="100" y="56" width="4" height="4" fill="black" />
  <rect x="104" y="56" width="4" height="4" fill="black" />
  <rect x="108" y="56" width="4" height="4" fill="black" />
  <rect x="112" y="56" width="4" height="4" fill="black" />
  <rect x="116" y="56" width="4" height="4" fill="black" />
  <rect x="132" y="56" width="4" height="4" fill="black" />
  <rect x="144" y="56" width="4" height="4" fill="black" />
  <rect x="16" y="60" width="4" height="4" fill="black" />
  <rect x="24" y="60" width="4" height="4" fill="black" />
  <rect x="44" y="60" width="4" height="4" fill="black" />
  <rect x="56" y="60" width="4" height="4" fill="black" />
  <rect x="68" y="60" width="4" height="4" fill="black" />
  <rect x="72" y="60" width="4" height="4" fill="black" />
  <rect x="88" y="60" width="4" height="4" fill="black" />
  <rect x="92" y="60" width="4" height="4" fill="black" />
  <rect x="96" y="60" width="4" height="4" fill="black" />
  <rect x="100" y="60" width="4" height="4" fill="black" />
  <rect x="108" y="60" width="4" height="4" fill="black" />
  <rect x="132" y="60" width="4" height="4" fill="black" />
  <rect x="140" y="60" width="4" height="4" fill="black" />
  <rect x="24" y="64" width="4" height="4" fill="black" />
  <rect x="28" y="64" width="4" height="4" fill="black" />
  <rect x="40" y="64" width="4" height="4" fill="black" />
  <rect x="56" y="64" width="4" height="4" fill="black" />
  <rect x="60" y="64" width="4" height="4" fill="black" />
  <rect x="64" y="64" width="4" height="4" fill="black" />
  <rect x="68" y="64" width="4" height="4" fill="black" />
  <rect x="72" y="64" width="4" height="4" fill="black" />
  <rect x="76" y="64" width="4" height="4" fill="black" />
  <rect x="80" y="64" width="4" height="4" fill="black" />
  <rect x="84" y="64" width="4" height="4" fill="black" />
  <rect x="88" y="64" width="4" height="4" fill="black" />
  <rect x="92" y="64" width="4" height="4" fill="black" />
  <rect x="96" y="64" width="4" height="4" fill="black" />
  <rect x="104" y="64" width="4" height="4" fill="black" />
  <rect x="108" y="64" width="4" height="4" fill="black" />
  <rect x="112" y="64" width="4" height="4" fill="black" />
  <rect x="116" y="64" width="4" height="4" fill="black" />
  <rect x="120" y="64" width="4" height="4" fill="black" />
  <rect x="124" y="64" width="4" height="4" fill="black" />
  <rect x="128" y="64" width="4" height="4" fill="black" />
  <rect x="136" y="64" width="4" height="4" fill="black" />
  <rect x="16" y="68" width="4" height="4" fill="black" />
  <rect x="24" y="68" width="4" height="4" fill="black" />
  <rect x="32" y="68" width="4" height="4" fill="black" />
  <rect x="36" y="68" width="4" height="4" fill="black" />
  <rect x="64" y="68" width="4" height="4" fill="black" />
  <rect x="80" y="68" width="4" height="4" fill="black" />
  <rect x="88" y="68" width="4" height="4" fill="black" />
  <rect x="92" y="68" width="4" height="4" fill="black" />
  <rect x="112" y="68" width="4" height="4" fill="black" />
  <rect x="128" y="68" width="4" height="4" fill="black" />
  <rect x="20" y="72" width="4" height="4" fill="black" />
  <rect x="24" y="72" width="4" height="4" fill="black" />
  <rect x="40" y="72" width="4" height="4" fill="black" />
  <rect x="48" y="72" width="4" height="4" fill="black" />
  <rect x="56" y="72" width="4" height="4" fill="black" />
  <rect x="60" y="72" width="4" height="4" fill="black" />
  <rect x="64" y="72" width="4" height="4" fill="black" />
  <rect x="72" y="72" width="4" height="4" fill="black" />
  <rect x="80" y="72" width="4" height="4" fill="black" />
  <rect x="92" y="72" width="4" height="4" fill="black" />
  <rect x="112" y="72" width="4" height="4" fill="black" />
  <rect x="120" y="72" width="4" height="4" fill="black" />
  <rect x="128" y="72" width="4" height="4" fill="black" />
  <rect x="132" y="72" width="4" height="4" fill="black" />
  <rect x="144" y="72" width="4" height="4" fill="black" />
  <rect x="28" y="76" width="4" height="4" fill="black" />
  <rect x="32" y="76" width="4" height="4" fill="black" />
  <rect x="36" y="76" width="4" height="4" fill="black" />
  <rect x="48" y="76" width="4" height="4" fill="black" />
  <rect x="64" y="76" width="4" height="4" fill="black" />
  <rect x="80" y="76" width="4" height="4" fill="black" />
  <rect x="88" y="76" width="4" height="4" fill="black" />
  <rect x="104" y="76" width="4" height="4" fill="black" />
  <rect x="112" y="76" width="4" height="4" fill="black" />
  <rect x="128" y="76" width="4" height="4" fill="black" />
  <rect x="132" y="76" width="4" height="4" fill="black" />
  <rect x="140" y="76" width="4" height="4" fill="black" />
  <rect x="144" y="76" width="4" height="4" fill="black" />
  <rect x="16" y="80" width="4" height="4" fill="black" />
  <rect x="20" y="80" width="4" height="4" fill="black" />
  <rect x="28" y="80" width="4" height="4" fill="black" />
  <rect x="32" y="80" width="4" height="4" fill="black" />
  <rect x="40" y="80" width="4" height="4" fill="black" />
  <rect x="44" y="80" width="4" height="4" fill="black" />
  <rect x="48" y="80" width="4" height="4" fill="black" />
  <rect x="56" y="80" width="4" height="4" fill="black" />
  <rect x="64" y="80" width="4" height="4" fill="black" />
  <rect x="68" y="80" width="4" height="4" fill="black" />
  <rect x="72" y="80" width="4" height="4" fill="black" />
  <rect x="76" y="80" width="4" height="4" fill="black" />
  <rect x="80" y="80" width="4" height="4" fill="black" />
  <rect x="84" y="80" width="4" height="4" fill="black" />
  <rect x="88" y="80" width="4" height="4" fill="black" />
  <rect x="96" y="80" width="4" height="4" fill="black" />
  <rect x="104" y="80" width="4" height="4" fill="black" />
  <rect x="108" y="80" width="4" height="4" fill="black" />
  <rect x="112" y="80" width="4" height="4" fill="black" />
  <rect x="116" y="80" width="4" height="4" fill="black" />
  <rect x="120" y="80" width="4" height="4" fill="black" />
  <rect x="124" y="80" width="4" height="4" fill="black" />
  <rect x="128" y="80" width="4" height="4" fill="black" />
  <rect x="132" y="80" width="4" height="4" fill="black" />
  <rect x="136" y="80" width="4" height="4" fill="black" />
  <rect x="28" y="84" width="4" height="4" fill="black" />
  <rect x="32" y="84" width="4" height="4" fill="black" />
  <rect x="64" y="84" width="4" height="4" fill="black" />
  <rect x="76" y="84" width="4" height="4" fill="black" />
  <rect x="88" y="84" width="4" height="4" fill="black" />
  <rect x="92" y="84" width="4" height="4" fill="black" />
  <rect x="108" y="84" width="4" height="4" fill="black" />
  <rect x="112" y="84" width="4" height="4" fill="black" />
  <rect x="124" y="84" width="4" height="4" fill="black" />
  <rect x="132" y="84" width="4" height="4" fill="black" />
  <rect x="16" y="88" width="4" height="4" fill="black" />
  <rect x="20" y="88" width="4" height="4" fill="black" />
  <rect x="28" y="88" width="4" height="4" fill="black" />
  <rect x="32" y="88" width="4" height="4" fill="black" />
  <rect x="40" y="88" width="4" height="4" fill="black" />
  <rect x="44" y="88" width="4" height="4" fill="black" />
  <rect x="48" y="88" width="4" height="4" fill="black" />
  <rect x="52" y="88" width="4" height="4" fill="black" />
  <rect x="64" y="88" width="4" height="4" fill="black" />
  <rect x="68" y="88" width="4" height="4" fill="black" />
  <rect x="72" y="88" width="4" height="4" fill="black" />
  <rect x="76" y="88" width="4" height="4" fill="black" />
  <rect x="80" y="88" width="4" height="4" fill="black" />
  <rect x="84" y="88" width="4" height="4" fill="black" />
  <rect x="88" y="88" width="4" height="4" fill="black" />
  <rect x="96" y="88" width="4" height="4" fill="black" />
  <rect x="104" y="88" width="4" height="4" fill="black" />
  <rect x="112" y="88" width="4" height="4" fill="black" />
  <rect x="120" y="88" width="4" height="4" fill="black" />
  <rect x="128" y="88" width="4" height="4" fill="black" />
  <rect x="136" y="88" width="4" height="4" fill="black" />
  <rect x="144" y="88" width="4" height="4" fill="black" />
  <rect x="24" y="92" width="4" height="4" fill="black" />
  <rect x="28" y="92" width="4" height="4" fill="black" />
  <rect x="32" y="92" width="4" height="4" fill="black" />
  <rect x="36" y="92" width="4" height="4" fill="black" />
  <rect x="64" y="92" width="4" height="4" fill="black" />
  <rect x="92" y="92" width="4" height="4" fill="black" />
  <rect x="112" y="92" width="4" height="4" fill="black" />
  <rect x="124" y="92" width="4" height="4" fill="black" />
  <rect x="144" y="92" width="4" height="4" fill="black" />
  <rect x="16" y="96" width="4" height="4" fill="black" />
  <rect x="20" y="96" width="4" height="4" fill="black" />
  <rect x="28" y="96" width="4" height="4" fill="black" />
  <rect x="32" y="96" width="4" height="4" fill="black" />
  <rect x="40" y="96" width="4" height="4" fill="black" />
  <rect x="48" y="96" width="4" height="4" fill="black" />
  <rect x="52" y="96" width="4" height="4" fill="black" />
  <rect x="56" y="96" width="4" height="4" fill="black" />
  <rect x="60" y="96" width="4" height="4" fill="black" />
  <rect x="64" y="96" width="4" height="4" fill="black" />
  <rect x="80" y="96" width="4" height="4" fill="black" />
  <rect x="88" y="96" width="4" height="4" fill="black" />
  <rect x="92" y="96" width="4" height="4" fill="black" />
  <rect x="96" y="96" width="4" height="4" fill="black" />
  <rect x="104" y="96" width="4" height="4" fill="black" />
  <rect x="108" y="96" width="4" height="4" fill="black" />
  <rect x="116" y="96" width="4" height="4" fill="black" />
  <rect x="120" y="96" width="4" height="4" fill="black" />
  <rect x="124" y="96" width="4" height="4" fill="black" />
  <rect x="128" y="96" width="4" height="4" fill="black" />
  <rect x="32" y="100" width="4" height="4" fill="black" />
  <rect x="44" y="100" width="4" height="4" fill="black" />
  <rect x="52" y="100" width="4" height="4" fill="black" />
  <rect x="56" y="100" width="4" height="4" fill="black" />
  <rect x="64" y="100" width="4" height="4" fill="black" />
  <rect x="92" y="100" width="4" height="4" fill="black" />
  <rect x="100" y="100" width="4" height="4" fill="black" />
  <rect x="116" y="100" width="4" height="4" fill="black" />
  <rect x="124" y="100" width="4" height="4" fill="black" />
  <rect x="136" y="100" width="4" height="4" fill="black" />
  <rect x="16" y="104" width="4" height="4" fill="black" />
  <rect x="20" y="104" width="4" height="4" fill="black" />
  <rect x="32" y="104" width="4" height="4" fill="black" />
  <rect x="36" y="104" width="4" height="4" fill="black" />
  <rect x="40" y="104" width="4" height="4" fill="black" />
  <rect x="44" y="104" width="4" height="4" fill="black" />
  <rect x="64" y="104" width="4" height="4" fill="black" />
  <rect x="68" y="104" width="4" height="4" fill="black" />
  <rect x="72" y="104" width="4" height="4" fill="black" />
  <rect x="80" y="104" width="4" height="4" fill="black" />
  <rect x="84" y="104" width="4" height="4" fill="black" />
  <rect x="88" y="104" width="4" height="4" fill="black" />
  <rect x="92" y="104" width="4" height="4" fill="black" />
  <rect x="96" y="104" width="4" height="4" fill="black" />
  <rect x="100" y="104" width="4" height="4" fill="black" />
  <rect x="104" y="104" width="4" height="4" fill="black" />
  <rect x="108" y="104" width="4" height="4" fill="black" />
  <rect x="112" y="104" width="4" height="4" fill="black" />
  <rect x="120" y="104" width="4" height="4" fill="black" />
  <rect x="128" y="104" width="4" height="4" fill="black" />
  <rect x="132" y="104" width="4" height="4" fill="black" />
  <rect x="144" y="104" width="4" height="4" fill="black" />
  <rect x="24" y="108" width="4" height="4" fill="black" />
  <rect x="32" y="108" width="4" height="4" fill="black" />
  <rect x="36" y="108" width="4" height="4" fill="black" />
  <rect x="44" y="108" width="4" height="4" fill="black" />
  <rect x="76" y="108" width="4" height="4" fill="black" />
  <rect x="84" y="108" width="4" height="4" fill="black" />
  <rect x="88" y="108" width="4" height="4" fill="black" />
  <rect x="96" y="108" width="4" height="4" fill="black" />
  <rect x="104" y="108" width="4" height="4" fill="black" />
  <rect x="112" y="108" width="4" height="4" fill="black" />
  <rect x="128" y="108" width="4" height="4" fill="black" />
  <rect x="144" y="108" width="4" height="4" fill="black" />
  <rect x="16" y="112" width="4" height="4" fill="black" />
  <rect x="20" y="112" width="4" height="4" fill="black" />
  <rect x="24" y="112" width="4" height="4" fill="black" />
  <rect x="28" y="112" width="4" height="4" fill="black" />
  <rect x="36" y="112" width="4" height="4" fill="black" />
  <rect x="40" y="112" width="4" height="4" fill="black" />
  <rect x="44" y="112" width="4" height="4" fill="black" />
  <rect x="60" y="112" width="4" height="4" fill="black" />
  <rect x="64" y="112" width="4" height="4" fill="black" />
  <rect x="68" y="112" width="4" height="4" fill="black" />
  <rect x="72" y="112" width="4" height="4" fill="black" />
  <rect x="76" y="112" width="4" height="4" fill="black" />
  <rect x="80" y="112" width="4" height="4" fill="black" />
  <rect x="88" y="112" width="4" height="4" fill="black" />
  <rect x="92" y="112" width="4" height="4" fill="black" />
  <rect x="96" y="112" width="4" height="4" fill="black" />
  <rect x="104" y="112" width="4" height="4" fill="black" />
  <rect x="108" y="112" width="4" height="4" fill="black" />
  <rect x="112" y="112" width="4" height="4" fill="black" />
  <rect x="116" y="112" width="4" height="4" fill="black" />
  <rect x="120" y="112" width="4" height="4" fill="black" />
  <rect x="124" y="112" width="4" height="4" fill="black" />
  <rect x="128" y="112" width="4" height="4" fill="black" />
  <rect x="132" y="112" width="4" height="4" fill="black" />
  <rect x="48" y="116" width="4" height="4" fill="black" />
  <rect x="64" y="116" width="4" height="4" fill="black" />
  <rect x="80" y="116" width="4" height="4" fill="black" />
  <rect x="84" y="116" width="4" height="4" fill="black" />
  <rect x="92" y="116" width="4" height="4" fill="black" />
  <rect x="112" y="116" width="4" height="4" fill="black" />
  <rect x="128" y="116" width="4" height="4" fill="black" />
  <rect x="140" y="116" width="4" height="4" fill="black" />
  <rect x="144" y="116" width="4" height="4" fill="black" />
  <rect x="16" y="120" width="4" height="4" fill="black" />
  <rect x="20" y="120" width="4" height="4" fill="black" />
  <rect x="24" y="120" width="4" height="4" fill="black" />
  <rect x="28" y="120" width="4" height="4" fill="black" />
  <rect x="32" y="120" width="4" height="4" fill="black" />
  <rect x="36" y="120" width="4" height="4" fill="black" />
  <rect x="40" y="120" width="4" height="4" fill="black" />
  <rect x="52" y="120" width="4" height="4" fill="black" />
  <rect x="56" y="120" width="4" height="4" fill="black" />
  <rect x="60" y="120" width="4" height="4" fill="black" />
  <rect x="64" y="120" width="4" height="4" fill="black" />
  <rect x="72" y="120" width="4" height="4" fill="black" />
  <rect x="80" y="120" width="4" height="4" fill="black" />
  <rect x="88" y="120" width="4" height="4" fill="black" />
  <rect x="92" y="120" width="4" height="4" fill="black" />
  <rect x="96" y="120" width="4" height="4" fill="black" />
  <rect x="100" y="120" width="4" height="4" fill="black" />
  <rect x="104" y="120" width="4" height="4" fill="black" />
  <rect x="112" y="120" width="4" height="4" fill="black" />
  <rect x="120" y="120" width="4" height="4" fill="black" />
  <rect x="128" y="120" width="4" height="4" fill="black" />
  <rect x="132" y="120" width="4" height="4" fill="black" />
  <rect x="136" y="120" width="4" height="4" fill="black" />
  <rect x="140" y="120" width="4" height="4" fill="black" />
  <rect x="144" y="120" width="4" height="4" fill="black" />
  <rect x="16" y="124" width="4" height="4" fill="black" />
  <rect x="40" y="124" width="4" height="4" fill="black" />
  <rect x="48" y="124" width="4" height="4" fill="black" />
  <rect x="52" y="124" width="4" height="4" fill="black" />
  <rect x="56" y="124" width="4" height="4" fill="black" />
  <rect x="60" y="124" width="4" height="4" fill="black" />
  <rect x="64" y="124" width="4" height="4" fill="black" />
  <rect x="80" y="124" width="4" height="4" fill="black" />
  <rect x="84" y="124" width="4" height="4" fill="black" />
  <rect x="100" y="124" width="4" height="4" fill="black" />
  <rect x="112" y="124" width="4" height="4" fill="black" />
  <rect x="128" y="124" width="4" height="4" fill="black" />
  <rect x="132" y="124" width="4" height="4" fill="black" />
  <rect x="16" y="128" width="4" height="4" fill="black" />
  <rect x="24" y="128" width="4" height="4" fill="black" />
  <rect x="28" y="128" width="4" height="4" fill="black" />
  <rect x="32" y="128" width="4" height="4" fill="black" />
  <rect x="40" y="128" width="4" height="4" fill="black" />
  <rect x="52" y="128" width="4" height="4" fill="black" />
  <rect x="56" y="128" width="4" height="4" fill="black" />
  <rect x="64" y="128" width="4" height="4" fill="black" />
  <rect x="68" y="128" width="4" height="4" fill="black" />
  <rect x="72" y="128" width="4" height="4" fill="black" />
  <rect x="76" y="128" width="4" height="4" fill="black" />
  <rect x="80" y="128" width="4" height="4" fill="black" />
  <rect x="88" y="128" width="4" height="4" fill="black" />
  <rect x="92" y="128" width="4" height="4" fill="black" />
  <rect x="104" y="128" width="4" height="4" fill="black" />
  <rect x="112" y="128" width="4" height="4" fill="black" />
  <rect x="116" y="128" width="4" height="4" fill="black" />
  <rect x="120" y="128" width="4" height="4" fill="black" />
  <rect x="124" y="128" width="4" height="4" fill="black" />
  <rect x="128" y="128" width="4" height="4" fill="black" />
  <rect x="136" y="128" width="4" height="4" fill="black" />
  <rect x="140" y="128" width="4" height="4" fill="black" />
  <rect x="144" y="128" width="4" height="4" fill="black" />
  <rect x="16" y="132" width="4" height="4" fill="black" />
  <rect x="24" y="132" width="4" height="4" fill="black" />
  <rect x="28" y="132" width="4" height="4" fill="black" />
  <rect x="32" y="132" width="4" height="4" fill="black" />
  <rect x="40" y="132" width="4" height="4" fill="black" />
  <rect x="52" y="132" width="4" height="4" fill="black" />
  <rect x="68" y="132" width="4" height="4" fill="black" />
  <rect x="72" y="132" width="4" height="4" fill="black" />
  <rect x="76" y="132" width="4" height="4" fill="black" />
  <rect x="116" y="132" width="4" height="4" fill="black" />
  <rect x="120" y="132" width="4" height="4" fill="black" />
  <rect x="132" y="132" width="4" height="4" fill="black" />
  <rect x="16" y="136" width="4" height="4" fill="black" />
  <rect x="24" y="136" width="4" height="4" fill="black" />
  <rect x="28" y="136" width="4" height="4" fill="black" />
  <rect x="32" y="136" width="4" height="4" fill="black" />
  <rect x="40" y="136" width="4" height="4" fill="black" />
  <rect x="52" y="136" width="4" height="4" fill="black" />
  <rect x="56" y="136" width="4" height="4" fill="black" />
  <rect x="60" y="136" width="4" height="4" fill="black" />
  <rect x="64" y="136" width="4" height="4" fill="black" />
  <rect x="68" y="136" width="4" height="4" fill="black" />
  <rect x="72" y="136" width="4" height="4" fill="black" />
  <rect x="76" y="136" width="4" height="4" fill="black" />
  <rect x="88" y="136" width="4" height="4" fill="black" />
  <rect x="96" y="136" width="4" height="4" fill="black" />
  <rect x="104" y="136" width="4" height="4" fill="black" />
  <rect x="112" y="136" width="4" height="4" fill="black" />
  <rect x="116" y="136" width="4" height="4" fill="black" />
  <rect x="120" y="136" width="4" height="4" fill="black" />
  <rect x="128" y="136" width="4" height="4" fill="black" />
  <rect x="136" y="136" width="4" height="4" fill="black" />
  <rect x="140" y="136" width="4" height="4" fill="black" />
  <rect x="144" y="136" width="4" height="4" fill="black" />
  <rect x="16" y="140" width="4" height="4" fill="black" />
  <rect x="40" y="140" width="4" height="4" fill="black" />
  <rect x="48" y="140" width="4" height="4" fill="black" />
  <rect x="56" y="140" width="4" height="4" fill="black" />
  <rect x="76" y="140" width="4" height="4" fill="black" />
  <rect x="80" y="140" width="4" height="4" fill="black" />
  <rect x="84" y="140" width="4" height="4" fill="black" />
  <rect x="92" y="140" width="4" height="4" fill="black" />
  <rect x="108" y="140" width="4" height="4" fill="black" />
  <rect x="116" y="140" width="4" height="4" fill="black" />
  <rect x="128" y="140" width="4" height="4" fill="black" />
  <rect x="132" y="140" width="4" height="4" fill="black" />
  <rect x="16" y="144" width="4" height="4" fill="black" />
  <rect x="20" y="144" width="4" height="4" fill="black" />
  <rect x="24" y="144" width="4" height="4" fill="black" />
  <rect x="28" y="144" width="4" height="4" fill="black" />
  <rect x="32" y="144" width="4" height="4" fill="black" />
  <rect x="36" y="144" width="4" height="4" fill="black" />
  <rect x="40" y="144" width="4" height="4" fill="black" />
  <rect x="52" y="144" width="4" height="4" fill="black" />
  <rect x="56" y="144" width="4" height="4" fill="black" />
  <rect x="68" y="144" width="4" height="4" fill="black" />
  <rect x="72" y="144" width="4" height="4" fill="black" />
  <rect x="76" y="144" width="4" height="4" fill="black" />
  <rect x="80" y="144" width="4" height="4" fill="black" />
  <rect x="88" y="144" width="4" height="4" fill="black" />
  <rect x="92" y="144" width="4" height="4" fill="black" />
  <rect x="96" y="144" width="4" height="4" fill="black" />
  <rect x="104" y="144" width="4" height="4" fill="black" />
  <rect x="112" y="144" width="4" height="4" fill="black" />
  <rect x="116" y="144" width="4" height="4" fill="black" />
  <rect x="120" y="144" width="4" height="4" fill="black" />
  <rect x="124" y="144" width="4" height="4" fill="black" />
  <rect x="128" y="144" width="4" height="4" fill="black" />
  <rect x="136" y="144" width="4" height="4" fill="black" />
  <rect x="144" y="144" width="4" height="4" fill="black" />
  <text x="16" y="184" font-family="Arial" font-size="12" fill="black">BANCO PICHINCHA DIDÁCTICO - Cuenta: 2100000014</text>
</svg>